<svg id="Google_Play" data-name="Google Play" xmlns="http://www.w3.org/2000/svg" width="180.295" height="66.776" viewBox="0 0 180.295 66.776">
  <g id="BG" fill="none" stroke="#000" stroke-width="1">
    <rect width="180.295" height="66.776" rx="33" stroke="none"/>
    <rect x="0.5" y="0.5" width="179.295" height="65.776" rx="32.5" fill="none"/>
  </g>
  <g id="Group_1095" data-name="Group 1095" transform="translate(69.182 21.334)">
    <path id="Download_on" data-name="Download on" d="M5.767-2.634H6.949V-.24A3.634,3.634,0,0,1,4.114.852,3.574,3.574,0,0,1,1.515-.17,3.459,3.459,0,0,1,.468-2.754a3.491,3.491,0,0,1,1.067-2.6A3.557,3.557,0,0,1,4.114-6.4a3.667,3.667,0,0,1,2.514.881L6-4.617A2.458,2.458,0,0,0,5.171-5.1,3.128,3.128,0,0,0,4.2-5.238a2.487,2.487,0,0,0-1.783.686,2.374,2.374,0,0,0-.721,1.8A2.376,2.376,0,0,0,2.4-.956,2.356,2.356,0,0,0,4.1-.28,3.028,3.028,0,0,0,5.767-.711ZM13.3-1.4H9.122a1.214,1.214,0,0,0,.531.937,1.863,1.863,0,0,0,1.122.356A1.86,1.86,0,0,0,12.3-.741l.641.7a2.98,2.98,0,0,1-2.244.891A2.67,2.67,0,0,1,8.787.105,2.631,2.631,0,0,1,8-1.9a2.59,2.59,0,0,1,.8-2,2.689,2.689,0,0,1,1.888-.741,2.734,2.734,0,0,1,1.848.656A2.261,2.261,0,0,1,13.3-2.173ZM9.122-2.284h3.055a1.284,1.284,0,0,0-.421-1.032,1.538,1.538,0,0,0-1.037-.361A1.775,1.775,0,0,0,9.613-3.3,1.213,1.213,0,0,0,9.122-2.284Zm6.751-1.372v2.7a.879.879,0,0,0,.2.606.711.711,0,0,0,.561.225.955.955,0,0,0,.691-.351l.461.791a1.912,1.912,0,0,1-1.307.531,1.682,1.682,0,0,1-1.222-.5,1.787,1.787,0,0,1-.506-1.337V-3.656H14.08v-.9h.671V-6.23h1.122v1.673h1.4v.9ZM22.544.771H21.422V-4.557h1.122Zm-1.052-6.39a.684.684,0,0,1-.21-.5.684.684,0,0,1,.21-.5.684.684,0,0,1,.5-.21.684.684,0,0,1,.5.21.684.684,0,0,1,.21.5.684.684,0,0,1-.21.5.684.684,0,0,1-.5.21A.684.684,0,0,1,21.492-5.619Zm4.057,1.963v2.7a.879.879,0,0,0,.2.606.711.711,0,0,0,.561.225A.955.955,0,0,0,27-.471l.461.791a1.912,1.912,0,0,1-1.307.531,1.682,1.682,0,0,1-1.222-.5,1.787,1.787,0,0,1-.506-1.337V-3.656h-.671v-.9h.671V-6.23h1.122v1.673h1.4v.9Zm6.8,3.02a1.618,1.618,0,0,0,1.207.486,1.618,1.618,0,0,0,1.207-.486,1.72,1.72,0,0,0,.476-1.257,1.72,1.72,0,0,0-.476-1.257,1.618,1.618,0,0,0-1.207-.486,1.618,1.618,0,0,0-1.207.486,1.72,1.72,0,0,0-.476,1.257A1.72,1.72,0,0,0,32.345-.636Zm3.21.691a2.727,2.727,0,0,1-2,.8,2.727,2.727,0,0,1-2-.8,2.641,2.641,0,0,1-.8-1.948,2.641,2.641,0,0,1,.8-1.948,2.727,2.727,0,0,1,2-.8,2.727,2.727,0,0,1,2,.8,2.641,2.641,0,0,1,.8,1.948A2.641,2.641,0,0,1,35.555.055Zm3.2-2.169V.771H37.629V-4.557h1.122v.972a2,2,0,0,1,.746-.771,1.987,1.987,0,0,1,1.027-.28,1.981,1.981,0,0,1,1.457.551,2.145,2.145,0,0,1,.556,1.593V.771H41.415V-2.153q0-1.472-1.222-1.472a1.468,1.468,0,0,0-1.012.386A1.434,1.434,0,0,0,38.751-2.113Z" transform="translate(-0.468 6.831)" opacity="0.7"/>
    <path id="play" d="M4.733-9.024a5.2,5.2,0,0,1,3.357.883,3.345,3.345,0,0,1,1.056,2.72A3.224,3.224,0,0,1,8.068-2.73a5.285,5.285,0,0,1-3.306.854H2.968V1.089H1.261V-9.024Zm.217,5.6a2.641,2.641,0,0,0,1.931-.543A2.232,2.232,0,0,0,7.4-5.559a1.649,1.649,0,0,0-.651-1.483A3.752,3.752,0,0,0,4.7-7.476H2.968v4.051Zm7.6,4.514h-1.62V-9.646h1.62Zm8.58,0H19.65V.062a3.166,3.166,0,0,1-2.561,1.143A2.938,2.938,0,0,1,15.1.525a2.277,2.277,0,0,1-.789-1.816,1.911,1.911,0,0,1,.839-1.7,4.019,4.019,0,0,1,2.271-.564h2.1v-.289q0-1.534-1.707-1.534a4,4,0,0,0-2.228.781l-.723-1.013a4.983,4.983,0,0,1,3.183-1.114,3.45,3.45,0,0,1,2.221.687,2.6,2.6,0,0,1,.861,2.163Zm-1.62-2.865v-.651H17.682q-1.751,0-1.751,1.1a.978.978,0,0,0,.434.861,2.121,2.121,0,0,0,1.208.3A2.192,2.192,0,0,0,18.927-.6,1.389,1.389,0,0,0,19.505-1.775Zm4.76,5.932a2.788,2.788,0,0,1-1.91-.767l.738-1.317a1.527,1.527,0,0,0,1.049.477,1.115,1.115,0,0,0,.883-.391,1.274,1.274,0,0,0,.34-.854q0-.2-3.111-7.914H23.99l2.3,5.671,2.3-5.671h1.736L26.595,2.536a2.781,2.781,0,0,1-.955,1.186A2.349,2.349,0,0,1,24.265,4.157ZM38.856-7.693a2.241,2.241,0,0,0-1.223.3,1.015,1.015,0,0,0-.477.919,1.068,1.068,0,0,0,.477.94,7.212,7.212,0,0,0,2.033.7A5.588,5.588,0,0,1,42.01-3.772a2.5,2.5,0,0,1,.789,2A2.655,2.655,0,0,1,41.8.38a3.979,3.979,0,0,1-2.619.825A6.152,6.152,0,0,1,34.972-.43l1.071-1.288A4.82,4.82,0,0,0,39.225-.386a2.173,2.173,0,0,0,1.309-.354,1.109,1.109,0,0,0,.485-.94,1.056,1.056,0,0,0-.456-.911,4.793,4.793,0,0,0-1.57-.593A14.119,14.119,0,0,1,37.3-3.678a3.824,3.824,0,0,1-1.027-.586,2.447,2.447,0,0,1-.9-2.083A2.536,2.536,0,0,1,36.4-8.51a4.109,4.109,0,0,1,2.525-.76,6.051,6.051,0,0,1,1.924.318,5.03,5.03,0,0,1,1.649.9l-.911,1.288a3.447,3.447,0,0,0-1.215-.666A4.682,4.682,0,0,0,38.856-7.693ZM46.5-5.306V-1.4a1.269,1.269,0,0,0,.289.875A1.028,1.028,0,0,0,47.6-.2a1.38,1.38,0,0,0,1-.506L49.266.438a2.762,2.762,0,0,1-1.888.767A2.43,2.43,0,0,1,45.613.489a2.581,2.581,0,0,1-.731-1.931V-5.306h-.969v-1.3h.969V-9.024H46.5v2.416h2.026v1.3ZM52.3-.943a2.337,2.337,0,0,0,1.743.7,2.337,2.337,0,0,0,1.743-.7,2.485,2.485,0,0,0,.687-1.816,2.485,2.485,0,0,0-.687-1.816,2.337,2.337,0,0,0-1.743-.7,2.337,2.337,0,0,0-1.743.7,2.485,2.485,0,0,0-.687,1.816A2.485,2.485,0,0,0,52.3-.943Zm4.637,1a3.939,3.939,0,0,1-2.894,1.15A3.939,3.939,0,0,1,51.147.055,3.815,3.815,0,0,1,49.99-2.759a3.815,3.815,0,0,1,1.157-2.814,3.939,3.939,0,0,1,2.894-1.15,3.939,3.939,0,0,1,2.894,1.15,3.815,3.815,0,0,1,1.157,2.814A3.815,3.815,0,0,1,56.934.055Zm7.031-5.143a2.15,2.15,0,0,0-1.809.781,3.328,3.328,0,0,0-.608,2.1v3.3h-1.62v-7.7h1.62V-5.06a3.354,3.354,0,0,1,1.063-1.186,2.562,2.562,0,0,1,1.425-.477l.014,1.635ZM72.835-2.05H66.8A1.754,1.754,0,0,0,67.568-.7a2.692,2.692,0,0,0,1.62.514,2.687,2.687,0,0,0,2.2-.911l.926,1.013a4.3,4.3,0,0,1-3.241,1.288A3.857,3.857,0,0,1,66.317.127a3.8,3.8,0,0,1-1.136-2.894,3.741,3.741,0,0,1,1.157-2.886,3.884,3.884,0,0,1,2.727-1.071,3.949,3.949,0,0,1,2.669.948,3.265,3.265,0,0,1,1.1,2.611ZM66.8-3.323h4.413a1.855,1.855,0,0,0-.608-1.49,2.221,2.221,0,0,0-1.5-.521,2.563,2.563,0,0,0-1.6.543A1.752,1.752,0,0,0,66.8-3.323Z" transform="translate(-0.184 22.948)"/>
  </g>
  <path id="logo" d="M1.228,27.863h0A2.1,2.1,0,0,1,0,25.957V1.909A2.1,2.1,0,0,1,1.234,0L15.624,13.929,1.228,27.863Zm3.232-.725h0L16.865,15.129l3.325,3.219L4.46,27.138Zm17.3-9.669h0L18.1,13.929l3.655-3.538,3.321,1.856A2.081,2.081,0,0,1,25.1,15.6l-3.342,1.868Zm-4.9-4.741h0l-12.4-12L20.187,9.512l-3.322,3.216Z" transform="translate(23.691 20.033)"/>
</svg>
