<svg xmlns="http://www.w3.org/2000/svg" xmlns:xlink="http://www.w3.org/1999/xlink" width="128.926" height="128.926" viewBox="0 0 128.926 128.926">
  <defs>
    <filter id="Mask" x="0" y="0" width="128.926" height="128.926" filterUnits="userSpaceOnUse">
      <feOffset dy="2" input="SourceAlpha"/>
      <feGaussianBlur stdDeviation="2" result="blur"/>
      <feFlood flood-opacity="0.071"/>
      <feComposite operator="in" in2="blur"/>
      <feComposite in="SourceGraphic"/>
    </filter>
    <linearGradient id="linear-gradient" x1="0.982" y1="1" x2="0.02" y2="0.112" gradientUnits="objectBoundingBox">
      <stop offset="0" stop-color="#4be1ec"/>
      <stop offset="0.469" stop-color="#9931d6"/>
      <stop offset="1" stop-color="#dc136e"/>
    </linearGradient>
  </defs>
  <g id="Group_68089" data-name="Group 68089" transform="translate(-899 -295)">
    <g transform="matrix(1, 0, 0, 1, 899, 295)" filter="url(#Mask)">
      <g id="Mask-2" data-name="Mask" transform="translate(8 6)" fill="#f7f8fa" stroke="#fff" stroke-miterlimit="10" stroke-width="2">
        <circle cx="56.463" cy="56.463" r="56.463" stroke="none"/>
        <circle cx="56.463" cy="56.463" r="57.463" fill="none"/>
      </g>
    </g>
    <path id="Intersection_19" data-name="Intersection 19" d="M16.074,84.256,52.8,53.925H.772A57.636,57.636,0,0,1,0,44.5c0-.189,0-.373,0-.56L93.116,0a57.628,57.628,0,0,1,6.552,6.207L66.235,37.272h47.691a57.8,57.8,0,0,1,.453,7.232q0,2.481-.208,4.906L24.359,91.338A57.577,57.577,0,0,1,16.074,84.256Z" transform="translate(907.154 313.546)" fill="#f0e" opacity="0.2"/>
    <path id="ic_mood_24px" d="M25.832,2a23.856,23.856,0,1,0,23.88,23.856A23.844,23.844,0,0,0,25.832,2Zm.024,42.941A19.085,19.085,0,1,1,44.941,25.856,19.08,19.08,0,0,1,25.856,44.941Zm8.35-21.47a3.578,3.578,0,1,0-3.578-3.578A3.574,3.574,0,0,0,34.206,23.47Zm-16.7,0a3.578,3.578,0,1,0-3.578-3.578A3.574,3.574,0,0,0,17.506,23.47Zm8.35,15.506a13.112,13.112,0,0,0,12.19-8.35H13.666A13.112,13.112,0,0,0,25.856,38.977Z" transform="translate(937.607 333.359)" stroke="rgba(0,0,0,0)" stroke-miterlimit="10" stroke-width="1" fill="url(#linear-gradient)"/>
  </g>
</svg>
