<svg id="Apple_Store" data-name="Apple Store" xmlns="http://www.w3.org/2000/svg" width="181.262" height="65.313" viewBox="0 0 181.262 65.313">
  <g id="BG" fill="none">
    <path d="M32.657,0H148.606a32.657,32.657,0,1,1,0,65.313H32.657A32.657,32.657,0,1,1,32.657,0Z" stroke="none"/>
    <path d="M 32.65673828125 1.000007629394531 C 28.38267517089844 1.000007629394531 24.23698425292969 1.836864471435547 20.33480834960938 3.487342834472656 C 16.56526184082031 5.081722259521484 13.17967224121094 7.364437103271484 10.27204895019531 10.27205657958984 C 7.36444091796875 13.1796760559082 5.08172607421875 16.56526947021484 3.487335205078125 20.33481597900391 C 1.836868286132812 24.23698425292969 1 28.38267517089844 1 32.65674591064453 C 1 36.93081665039062 1.836868286132812 41.07650756835938 3.487335205078125 44.97867584228516 C 5.08172607421875 48.74822235107422 7.36444091796875 52.13381958007812 10.27204895019531 55.04143524169922 C 13.17967224121094 57.94905471801758 16.56526184082031 60.23176956176758 20.33480834960938 61.82614898681641 C 24.23698425292969 63.47662734985352 28.38267517089844 64.31348419189453 32.65673828125 64.31348419189453 L 148.6055297851562 64.31348419189453 C 152.8796081542969 64.31348419189453 157.0253143310547 63.47662734985352 160.9274597167969 61.82614898681641 C 164.6970062255859 60.23176956176758 168.0826263427734 57.94905471801758 170.9902496337891 55.04143524169922 C 173.8978576660156 52.13381958007812 176.1805725097656 48.74822235107422 177.7749633789062 44.97867584228516 C 179.4254302978516 41.07650756835938 180.2622985839844 36.93081665039062 180.2622985839844 32.65674591064453 C 180.2622985839844 28.38267517089844 179.4254302978516 24.23698425292969 177.7749633789062 20.33481597900391 C 176.1805725097656 16.56526947021484 173.8978576660156 13.1796760559082 170.9902496337891 10.27205657958984 C 168.0826263427734 7.364437103271484 164.6970062255859 5.081722259521484 160.9274597167969 3.487342834472656 C 157.0253143310547 1.836864471435547 152.8796081542969 1.000007629394531 148.6055297851562 1.000007629394531 L 32.65673828125 1.000007629394531 M 32.65673828125 7.62939453125e-06 L 148.6055297851562 7.62939453125e-06 C 166.641357421875 7.62939453125e-06 181.2622985839844 14.62091445922852 181.2622985839844 32.65674591064453 C 181.2622985839844 50.69258117675781 166.641357421875 65.31348419189453 148.6055297851562 65.31348419189453 L 32.65673828125 65.31348419189453 C 14.62091064453125 65.31348419189453 0 50.69258117675781 0 32.65674591064453 C 0 14.62091445922852 14.62091064453125 7.62939453125e-06 32.65673828125 7.62939453125e-06 Z" stroke="none" fill="#000"/>
  </g>
  <g id="Apple_g" data-name="Apple g" transform="translate(24 16)">
    <path id="Download_on_the" data-name="Download on the" d="M3.379-6.195A4.146,4.146,0,0,1,6.4-5.167,3.809,3.809,0,0,1,7.451-2.308,4.014,4.014,0,0,1,6.428.591,4.155,4.155,0,0,1,3.3,1.658H.873V-6.195Zm2.83,3.921q0-2.7-2.871-2.7H2.105V.411H3.473A2.81,2.81,0,0,0,5.5-.268,2.662,2.662,0,0,0,6.208-2.274ZM10.171.08a1.627,1.627,0,0,0,1.258.545A1.627,1.627,0,0,0,12.687.08a2.014,2.014,0,0,0,.5-1.41,2.014,2.014,0,0,0-.5-1.41,1.627,1.627,0,0,0-1.258-.545,1.627,1.627,0,0,0-1.258.545,2.014,2.014,0,0,0-.5,1.41A2.014,2.014,0,0,0,10.171.08Zm3.346.775a2.74,2.74,0,0,1-2.088.893A2.74,2.74,0,0,1,9.341.855,3.081,3.081,0,0,1,8.505-1.33a3.081,3.081,0,0,1,.835-2.185,2.74,2.74,0,0,1,2.088-.893,2.74,2.74,0,0,1,2.088.893,3.081,3.081,0,0,1,.835,2.185A3.081,3.081,0,0,1,13.517.855Zm4.688.8H16.869L14.948-4.319h1.211L17.537.2l1.378-4.517h1.211L21.5.2l1.378-4.517h1.211L22.173,1.658H20.836l-1.316-4.09ZM26.3-1.577V1.658H25.128V-4.319H26.3v1.09a2.175,2.175,0,0,1,.778-.865,1.961,1.961,0,0,1,1.07-.315,1.986,1.986,0,0,1,1.519.618A2.517,2.517,0,0,1,30.244-2V1.658H29.074V-1.622q0-1.652-1.274-1.652a1.471,1.471,0,0,0-1.055.433A1.675,1.675,0,0,0,26.3-1.577Zm6.745,3.236H31.873V-6.678h1.169ZM36.033.08a1.627,1.627,0,0,0,1.258.545A1.627,1.627,0,0,0,38.55.08a2.014,2.014,0,0,0,.5-1.41,2.014,2.014,0,0,0-.5-1.41,1.627,1.627,0,0,0-1.258-.545,1.627,1.627,0,0,0-1.258.545,2.014,2.014,0,0,0-.5,1.41A2.014,2.014,0,0,0,36.033.08ZM39.38.855a2.74,2.74,0,0,1-2.088.893A2.74,2.74,0,0,1,35.2.855a3.081,3.081,0,0,1-.835-2.185A3.081,3.081,0,0,1,35.2-3.515a2.74,2.74,0,0,1,2.088-.893,2.74,2.74,0,0,1,2.088.893,3.081,3.081,0,0,1,.835,2.185A3.081,3.081,0,0,1,39.38.855Zm6.661.8H44.976v-.8a2.22,2.22,0,0,1-1.848.888,2.028,2.028,0,0,1-1.436-.528,1.831,1.831,0,0,1-.569-1.41,1.523,1.523,0,0,1,.606-1.32,2.743,2.743,0,0,1,1.639-.438h1.514v-.225A1.071,1.071,0,0,0,43.65-3.364a2.759,2.759,0,0,0-1.608.607l-.522-.786a3.44,3.44,0,0,1,2.3-.865,2.373,2.373,0,0,1,1.6.534,2.1,2.1,0,0,1,.621,1.68ZM44.872-.566v-.506H43.556q-1.263,0-1.263.854a.778.778,0,0,0,.313.668,1.447,1.447,0,0,0,.872.23,1.508,1.508,0,0,0,.976-.337A1.108,1.108,0,0,0,44.872-.566Zm5.064,2.314A2.419,2.419,0,0,1,48.1.894a3.194,3.194,0,0,1-.783-2.247,3.064,3.064,0,0,1,.8-2.225,2.574,2.574,0,0,1,1.916-.831A2.069,2.069,0,0,1,51.825-3.4V-6.678h1.169V1.658H51.825V.76A2.118,2.118,0,0,1,49.936,1.748ZM48.484-1.3A1.949,1.949,0,0,0,49,.1a1.6,1.6,0,0,0,1.2.539A1.5,1.5,0,0,0,51.366.091a2.037,2.037,0,0,0,.48-1.4,2.146,2.146,0,0,0-.48-1.427,1.483,1.483,0,0,0-1.18-.573,1.543,1.543,0,0,0-1.2.573A2.1,2.1,0,0,0,48.484-1.3ZM58.847.08a1.627,1.627,0,0,0,1.258.545A1.627,1.627,0,0,0,61.363.08a2.014,2.014,0,0,0,.5-1.41,2.014,2.014,0,0,0-.5-1.41,1.627,1.627,0,0,0-1.258-.545,1.627,1.627,0,0,0-1.258.545,2.014,2.014,0,0,0-.5,1.41A2.014,2.014,0,0,0,58.847.08Zm3.346.775a2.74,2.74,0,0,1-2.088.893A2.74,2.74,0,0,1,58.017.855a3.081,3.081,0,0,1-.835-2.185,3.081,3.081,0,0,1,.835-2.185,2.74,2.74,0,0,1,2.088-.893,2.74,2.74,0,0,1,2.088.893,3.081,3.081,0,0,1,.835,2.185A3.081,3.081,0,0,1,62.193.855Zm3.331-2.432V1.658H64.355V-4.319h1.169v1.09a2.175,2.175,0,0,1,.778-.865,1.961,1.961,0,0,1,1.07-.315,1.986,1.986,0,0,1,1.519.618A2.517,2.517,0,0,1,69.471-2V1.658H68.3V-1.622q0-1.652-1.274-1.652a1.471,1.471,0,0,0-1.055.433A1.675,1.675,0,0,0,65.524-1.577ZM75.4-3.307V-.274a1.034,1.034,0,0,0,.209.68.716.716,0,0,0,.585.253.972.972,0,0,0,.72-.393l.48.888a1.921,1.921,0,0,1-1.363.6,1.691,1.691,0,0,1-1.274-.556,2.091,2.091,0,0,1-.527-1.5v-3h-.7V-4.319h.7V-6.195H75.4v1.876h1.462v1.011Zm4.093,1.73V1.658H78.325V-6.667h1.169v3.438a1.943,1.943,0,0,1,.757-.865,2.03,2.03,0,0,1,1.091-.315,1.986,1.986,0,0,1,1.519.618A2.517,2.517,0,0,1,83.441-2V1.658H82.272V-1.622q0-1.652-1.274-1.652a1.471,1.471,0,0,0-1.055.433A1.675,1.675,0,0,0,79.494-1.577Zm10.744.8H85.884a1.388,1.388,0,0,0,.553,1.05,1.85,1.85,0,0,0,1.169.4,1.878,1.878,0,0,0,1.587-.708l.668.786a3,3,0,0,1-2.339,1A2.68,2.68,0,0,1,85.534.911a3.073,3.073,0,0,1-.82-2.247,3.021,3.021,0,0,1,.835-2.241,2.7,2.7,0,0,1,1.968-.831,2.73,2.73,0,0,1,1.926.736,2.629,2.629,0,0,1,.794,2.028Zm-4.354-.989h3.185a1.5,1.5,0,0,0-.439-1.157,1.534,1.534,0,0,0-1.081-.4,1.767,1.767,0,0,0-1.154.421A1.4,1.4,0,0,0,85.884-1.768Z" transform="translate(43.024 10.031)" opacity="0.7"/>
    <path id="App_Store" data-name="App Store" d="M2.956-.269,1.9,2.312H0L4.645-9.032h1.9L11.191,2.312H9.29L8.235-.269ZM7.511-2.038,5.6-6.711,3.68-2.038Zm9.2-4.414a3.678,3.678,0,0,1,2.76,1.2,4.438,4.438,0,0,1,1.146,3.2,4.632,4.632,0,0,1-1.139,3.246,3.491,3.491,0,0,1-2.654,1.25A3.519,3.519,0,0,1,14.1,1.013V5.46H12.412V-6.322H14.1v1.509A2.972,2.972,0,0,1,16.71-6.452ZM14.071-1.989a2.943,2.943,0,0,0,.694,2.02,2.17,2.17,0,0,0,1.689.787A2.317,2.317,0,0,0,18.188.04a2.815,2.815,0,0,0,.739-2.02A3,3,0,0,0,18.2-4.042a2.238,2.238,0,0,0-1.734-.82,2.15,2.15,0,0,0-1.7.82A3.067,3.067,0,0,0,14.071-1.989ZM26.845-6.452a3.678,3.678,0,0,1,2.76,1.2,4.438,4.438,0,0,1,1.146,3.2,4.632,4.632,0,0,1-1.139,3.246,3.491,3.491,0,0,1-2.654,1.25,3.519,3.519,0,0,1-2.722-1.428V5.46H22.547V-6.322h1.689v1.509A2.972,2.972,0,0,1,26.845-6.452ZM24.206-1.989A2.943,2.943,0,0,0,24.9.032a2.17,2.17,0,0,0,1.689.787A2.317,2.317,0,0,0,28.323.04a2.815,2.815,0,0,0,.739-2.02,3,3,0,0,0-.724-2.061,2.238,2.238,0,0,0-1.734-.82,2.15,2.15,0,0,0-1.7.82A3.067,3.067,0,0,0,24.206-1.989Zm16.039-5.55a2.209,2.209,0,0,0-1.274.341,1.165,1.165,0,0,0-.5,1.031,1.228,1.228,0,0,0,.5,1.055,7.18,7.18,0,0,0,2.119.787,5.646,5.646,0,0,1,2.443,1.185,2.918,2.918,0,0,1,.822,2.248,3.073,3.073,0,0,1-1.041,2.41,3.956,3.956,0,0,1-2.73.925A6.167,6.167,0,0,1,36.2.608L37.312-.837A4.846,4.846,0,0,0,40.63.656a2.149,2.149,0,0,0,1.365-.4A1.275,1.275,0,0,0,42.5-.8a1.216,1.216,0,0,0-.475-1.022,4.793,4.793,0,0,0-1.636-.665,13.938,13.938,0,0,1-1.765-.552,3.924,3.924,0,0,1-1.071-.657,2.839,2.839,0,0,1-.935-2.337,2.929,2.929,0,0,1,1.063-2.426,4.075,4.075,0,0,1,2.632-.852,5.9,5.9,0,0,1,2.006.357,5.144,5.144,0,0,1,1.719,1.006L43.088-6.5a3.529,3.529,0,0,0-1.267-.747A4.57,4.57,0,0,0,40.245-7.539Zm7.971,2.678V-.48a1.494,1.494,0,0,0,.3.982,1.035,1.035,0,0,0,.845.365A1.4,1.4,0,0,0,50.4.3L51.1,1.581a2.775,2.775,0,0,1-1.968.86,2.443,2.443,0,0,1-1.84-.8,3.02,3.02,0,0,1-.762-2.167V-4.861h-1.01V-6.322h1.01v-2.71h1.689v2.71h2.111v1.461ZM54.256.032a2.35,2.35,0,0,0,1.817.787A2.35,2.35,0,0,0,57.891.032a2.909,2.909,0,0,0,.716-2.037,2.909,2.909,0,0,0-.716-2.037,2.35,2.35,0,0,0-1.817-.787,2.35,2.35,0,0,0-1.817.787,2.909,2.909,0,0,0-.716,2.037A2.909,2.909,0,0,0,54.256.032Zm4.834,1.12a3.958,3.958,0,0,1-3.016,1.29,3.958,3.958,0,0,1-3.016-1.29A4.45,4.45,0,0,1,51.85-2.005a4.45,4.45,0,0,1,1.207-3.156,3.958,3.958,0,0,1,3.016-1.29,3.958,3.958,0,0,1,3.016,1.29A4.45,4.45,0,0,1,60.3-2.005,4.45,4.45,0,0,1,59.09,1.151Zm7.33-5.769a2.176,2.176,0,0,0-1.885.876A3.937,3.937,0,0,0,63.9-1.388v3.7H62.211V-6.322H63.9v1.736a3.683,3.683,0,0,1,1.108-1.331,2.547,2.547,0,0,1,1.486-.536l.015,1.834ZM75.664-1.21H69.375a2,2,0,0,0,.8,1.517,2.673,2.673,0,0,0,1.689.576A2.712,2.712,0,0,0,74.156-.139L75.121,1a4.328,4.328,0,0,1-3.378,1.444A3.871,3.871,0,0,1,68.87,1.232a4.439,4.439,0,0,1-1.184-3.246,4.363,4.363,0,0,1,1.207-3.238,3.9,3.9,0,0,1,2.843-1.2,3.944,3.944,0,0,1,2.783,1.063A3.8,3.8,0,0,1,75.664-2.46ZM69.375-2.638h4.6a2.161,2.161,0,0,0-.633-1.672,2.216,2.216,0,0,0-1.561-.584,2.553,2.553,0,0,0-1.667.609A2.022,2.022,0,0,0,69.375-2.638Z" transform="translate(42.799 27.854)"/>
    <path id="logo" d="M7.384,31.254c-1.752,0-3.077-1.872-4.393-3.957A20.821,20.821,0,0,1,.234,19.763a13.468,13.468,0,0,1,.957-8.213,7.675,7.675,0,0,1,2.5-2.835A6.269,6.269,0,0,1,7.073,7.632h.072a7.367,7.367,0,0,1,2.862.8,5.039,5.039,0,0,0,1.762.556,5.139,5.139,0,0,0,1.7-.548,8.542,8.542,0,0,1,3.289-.907,4.111,4.111,0,0,1,.453.025,6.42,6.42,0,0,1,5.2,3.095l-.023.016a7.115,7.115,0,0,0-3.047,5.937,6.84,6.84,0,0,0,3.808,6.317l.007,0-.009.032a17.981,17.981,0,0,1-1.96,4.414c-1.109,1.78-2.365,3.8-4.352,3.839h-.086a4.552,4.552,0,0,1-2.116-.585,5.274,5.274,0,0,0-2.493-.656,5.6,5.6,0,0,0-2.616.677,5.027,5.027,0,0,1-2.045.6ZM11.831,7.216c-.1,0-.193,0-.288-.012a6.921,6.921,0,0,1,1.51-4.836A6.185,6.185,0,0,1,17.242,0a7.366,7.366,0,0,1-1.481,4.992A5.2,5.2,0,0,1,11.831,7.216Z" transform="translate(0 0)"/>
  </g>
</svg>
