<svg xmlns="http://www.w3.org/2000/svg" width="29.995" height="33.536" viewBox="0 0 29.995 33.536">
  <path id="phone-svgrepo-com" d="M14.677,6.178S14.174,5,13.406,5a1.913,1.913,0,0,0-1.412.59c-.262.241-4.649,3.846-4.649,3.846a4.145,4.145,0,0,0-1.178,3.21,21.273,21.273,0,0,0,2.62,9.235c2.113,4.146,7.4,10.482,10.742,12.709a24.917,24.917,0,0,0,5.977,3.34,17.324,17.324,0,0,0,2.9.607,2.946,2.946,0,0,0,1.9-.587c.817-.593,5.4-4.279,5.4-4.279a1.4,1.4,0,0,0-.181-2.192c-1.309-1.178-5.285-3.8-6.136-4.488a2.1,2.1,0,0,0-2.59.082c-.523.477-1.457,1.262-1.572,1.361-.171.131-.639.556-1.163.345a16.042,16.042,0,0,1-5.944-5.223c-2.523-3.469-2.8-4.6-3.177-5.829a.854.854,0,0,1,.343-1c.378-.262,1.77-1.422,1.77-1.422a2.008,2.008,0,0,0,.524-1.936c-.377-1.047-2.905-7.189-2.905-7.189Z" transform="translate(-6.161 -5)" fill="#095ef9"/>
</svg>
