<svg id="Search" xmlns="http://www.w3.org/2000/svg" width="28.076" height="28.076" viewBox="0 0 28.076 28.076">
  <path id="Search-2" data-name="Search" d="M26.419,27.877l-.116-.1L21.912,23.5a13.619,13.619,0,0,1-8.421,2.892A13.361,13.361,0,0,1,0,13.2,13.361,13.361,0,0,1,13.492,0,13.362,13.362,0,0,1,26.985,13.2a12.986,12.986,0,0,1-3.553,8.913l4.339,4.231a1,1,0,0,1,0,1.438,1.058,1.058,0,0,1-1.353.1ZM2.078,13.2A11.3,11.3,0,0,0,13.492,24.357,11.3,11.3,0,0,0,24.907,13.2,11.3,11.3,0,0,0,13.492,2.033,11.3,11.3,0,0,0,2.078,13.2Z"/>
</svg>
